<?xml version="1.0" encoding="utf-8"?>
<!-- Generator: Adobe Illustrator 27.5.0, SVG Export Plug-In . SVG Version: 6.00 Build 0)  -->
<svg version="1.1" id="Capa_1" xmlns="http://www.w3.org/2000/svg" xmlns:xlink="http://www.w3.org/1999/xlink" x="0px" y="0px"
	 viewBox="0 0 2122 2122" style="enable-background:new 0 0 2122 2122;" xml:space="preserve">
<path style="fill:#F7B8B2;" d="M944.152,682.661c-14.861-2.702-37.827,10.133-37.827,10.133l16.212-18.238
	c0,0,35.801-11.483,37.152-24.993c1.351-13.51-41.88-6.755-41.88-6.755s38.503-20.264,37.152-33.774
	c-1.351-13.51-54.714,6.755-54.714,6.755s21.615-36.476,9.457-41.88c-6.611-2.938-27.788,18.479-45.747,38.641
	c-15.073,16.922-27.881,32.961-27.881,32.961s-52.688,95.919-63.324,127.305c0,0-25.428,57.291-55.049,137.453
	c-33.61,90.961-72.618,211.37-86.002,310.953c-13.135,97.733,21.269,171.051,50.598,180.67c20.445,6.705,72.901-4.8,107.938-42.847
	c4.179-4.538,8.128-9.425,11.727-14.734c9.513-14.033,16.711-30.801,20.033-50.58c12.425-73.981,18.5-340.19,20.269-432.591
	c0.383-19.997,0.565-31.897,0.565-31.897s62.758-31.751,68.688-95.863c0.064-0.697,0.161-1.377,0.211-2.083
	c0.012-0.168-0.001-0.334,0.009-0.502l25.66-25.166c0,0,26.344,13.51,33.099,6.755C977.251,705.628,959.013,685.363,944.152,682.661
	z"/>
<path style="fill:#6699D1;" d="M1367.601,1735.106c-47.734,26.307-577.286,27.643-616.445-0.714
	c-0.348-0.252-0.634-0.587-0.966-0.86c-36.868,65.484-51.239,263.623-51.239,263.623h42.845h347.393h310.916
	C1400.105,1997.155,1380.041,1815.977,1367.601,1735.106z"/>
<path style="fill:#F7B8B2;" d="M1217.479,423.133c4.802-0.42,23.952,2.173,40.385,12.505c8.275,5.202,12.588,9.563,15.038,12.849
	c0.223-5.689,0.42-11.234,0.601-16.675c-0.242-43.093-4.291-96.529-22.681-99.728c-22.966,14.861-38.165-8.443-38.165-8.443
	s3.546,14.692-6.08,20.264c-9.625,5.573-37.996-15.705-37.996-15.705s-2.533,30.904-26.85,33.943
	c-22.17,2.771-36.476-26.344-36.476-26.344s-30.397,25.837-44.582,23.811c-17.618-2.517-12.665-20.264-12.665-20.264
	s-12.666,12.666-23.811,17.732c-11.146,5.066-32.761-2.026-32.761-2.026s13.509,74.304,5.404,87.813
	c-8.106,13.509-33.774,27.019-33.774,27.019l-3.81,35.559c6.218-0.359,14.521-0.089,14.715,2.429l17.148,221.851
	c0.281,3.643-16.387,9.779-19.84,9.442l-0.957-0.153c-0.179-0.001-0.327,0.078-0.511,0.06l-28.379-2.771
	c-4.663,37.364-15.708,72.874-37.134,100.371c0,0,111.837,65.859,193.189,52.688c70.926-11.484,54.039-52.013,54.039-52.013
	c-64.171-19.589-120.237-82.409-145.894-171.826c71.684,64.734,136.211,73.051,136.211,73.051s33.325,6.234,59.669-8.627
	c52.503-29.617,66.105-163.519,70.811-267.764c-2.012-1.412-1.983-5.279-18.666-11.626c-17.177-6.535-30.732-3.401-36.58-3.348
	C1210.665,447.267,1212.677,423.552,1217.479,423.133z"/>
<path style="fill:#1E163E;" d="M909.785,488.924c15.854-2.495,22.772,9.52,29.116,20.606l12.911-3.319
	c0.582-0.15,1.145-0.175,1.692-0.147c1.172-0.239,3.28-0.48,5.752-0.623l3.81-35.559c0,0,25.669-13.51,33.774-27.019
	c8.106-13.51-5.404-87.813-5.404-87.813s21.615,7.092,32.761,2.026c11.146-5.066,23.811-17.732,23.811-17.732
	s-4.953,17.747,12.665,20.264c14.185,2.027,44.582-23.811,44.582-23.811s14.306,29.115,36.476,26.344
	c24.317-3.039,26.85-33.943,26.85-33.943s28.371,21.278,37.996,15.705c9.626-5.573,6.08-20.264,6.08-20.264
	s15.198,23.304,38.165,8.443c18.39,3.198,22.438,56.635,22.681,99.728c0.034,6.048-0.01,11.859-0.097,17.331
	c-0.144-0.205-0.344-0.442-0.504-0.657c-2.451-3.286-6.764-7.647-15.038-12.849c-16.433-10.331-35.583-12.925-40.385-12.505
	c-4.802,0.419-6.815,24.134-0.402,24.075c5.848-0.054,19.403-3.187,36.58,3.348c16.683,6.346,16.654,10.214,18.666,11.626
	c0.012,0.009,0.022,0.019,0.035,0.027c0.214,0.146,0.469,0.192,0.745,0.158c-0.44,14.374-1.074,23.965-1.074,23.965
	s29.418-77.531,18.647-163.704c0.009-0.162,0.004-0.315,0.013-0.476c18.683-11.449,15.423-51.902,13.497-69.099
	c-2.219-19.807-13.51-48.635-26.592-59.683c2.824,9.635,2.783,20.09-0.116,29.703c-9.768-22.033-23.708-41.326-42.867-57.157
	c-19.16-15.832-54.329-36.513-79.032-33.775c5.383,3.809,15.733,18.985,18.601,24.923c-19.277-14.79-44.27-28.3-73.315-31.677
	c-29.842-3.47-55.481,0.767-84.436,8.781c5.789,2.932,21.23,11.929,27.019,14.861c-36.348-4.377-86.147,6.908-112.806,27.695
	c8.375,1.017,17.193,3.093,26.159,5.753c-19.378,8.749-36.167,19.852-48.007,33.784c-19.188,22.577-20.369,51.653-20.369,51.653
	s-21.278,14.185-30.734,35.8c-15.872,36.278,11.797,137.023,32.098,200.84C893.904,495.88,901.16,490.298,909.785,488.924z"/>
<path style="fill:#DF8080;" d="M1151.526,837.347l-9.683-98.775c0,0-64.527-8.317-136.211-73.051
	C1031.29,754.938,1087.355,817.758,1151.526,837.347z"/>
 <path style="fill:#1E163E;" d="M1098.689,480.886c-7.83,0-14.424,7.754-14.424,17.419c0,9.516,6.594,17.307,14.424,17.307
      c8.092,0,14.571-7.791,14.571-17.307C1113.26,488.641,1106.781,480.886,1098.689,480.886z">
    <animate 
      attributeName="d" 
      values="
        M1098.689,480.886c-7.83,0-14.424,7.754-14.424,17.419c0,9.516,6.594,17.307,14.424,17.307
        c8.092,0,14.571-7.791,14.571-17.307C1113.26,488.641,1106.781,480.886,1098.689,480.886z; 
        M1098.689,480.886c-7.83,0-14.424,7.754-14.424,1c0,9.516,6.594,1,14.424,1
        c8.092,0,14.571-7.791,14.571-1C1113.26,488.641,1106.781,480.886,1098.689,480.886z;
        M1098.689,480.886c-7.83,0-14.424,7.754-14.424,17.419c0,9.516,6.594,17.307,14.424,17.307
        c8.092,0,14.571-7.791,14.571-17.307C1113.26,488.641,1106.781,480.886,1098.689,480.886z"
      dur="2s" 
      repeatCount="indefinite" />
  </path>
<path style="fill:#1E163E;" d="M1230.952,480.886c-8.092,0-14.535,7.791-14.535,17.381c0,9.59,6.443,17.345,14.535,17.345
	c7.868,0,14.424-7.754,14.424-17.345C1245.375,488.677,1238.819,480.886,1230.952,480.886z"/>
<path style="fill:#1E163E;" d="M1113.316,424.943c-5.581-0.737-28.392,0.598-49.023,9.861
	c-17.944,8.056-21.926,14.471-23.671,17.007c-3.167,4.605-2.179,9.932-0.047,8.894c2.586-1.259,6.186-5.398,26.712-10.686
	c21.009-5.412,36.509-1.382,43.364-0.941C1118.169,449.56,1118.897,425.68,1113.316,424.943z"/>
<path style="fill:#F7B8B2;" d="M909.785,488.924c-8.626,1.374-15.881,6.955-19.997,15.629c-2.449,5.16-3.798,11.403-3.63,18.536
	l34.451-8.857c-4.244-4.66-11.93-6.52-16.499-1.18c-2.171,2.537-5.818-1.143-3.662-3.662c6.589-7.701,18.799-5.295,24.59,1.994
	c0.374,0.471,0.624,0.979,0.954,1.464l12.908-3.318C932.557,498.445,925.639,486.43,909.785,488.924z"/>
<path style="fill:#DF8080;" d="M900.449,509.392c-2.156,2.52,1.491,6.199,3.662,3.662c4.569-5.34,12.255-3.48,16.499,1.18
	l5.384-1.385c-0.33-0.484-0.58-0.993-0.954-1.464C919.247,504.096,907.038,501.691,900.449,509.392z"/>
<g>
        <!-- Lips Path -->
        <path id="lips" style="fill:#d00909;" d="M1221.088,614.473c-28.646,6.655-58.012,7.679-86.774,1.013c-3.243-0.751-4.627,4.24-1.376,4.994
            c29.676,6.877,59.967,5.855,89.528-1.013C1225.71,618.713,1224.337,613.718,1221.088,614.473z">
            <animate 
                attributeName="d" 
                values="
                    M1221.088,614.473c-28.646,6.655-58.012,7.679-86.774,1.013c-3.243-0.751-4.627,4.24-1.376,4.994
                    c29.676,6.877,59.967,5.855,89.528-1.013C1225.71,618.713,1224.337,613.718,1221.088,614.473z;
                    M1221.088,615.473c-28.646,10.655-58.012,12.679-86.774,5.013c-3.243-0.751-4.627,8.24-1.376,8.994
                    c29.676,10.877,59.967,9.855,89.528,3.013C1225.71,623.713,1224.337,618.718,1221.088,615.473z;
                    M1221.088,614.473c-28.646,6.655-58.012,7.679-86.774,1.013c-3.243-0.751-4.627,4.24-1.376,4.994
                    c29.676,6.877,59.967,5.855,89.528-1.013C1225.71,618.713,1224.337,613.718,1221.088,614.473z" 
                dur="0.5s" 
                repeatCount="indefinite" />
        </path>
    </g>
<path style="fill:#DF8080;" d="M1170.993,585.462c3.111,0.392,19.628,2.293,24.06-0.915c4.565-3.306,5.552-16.275,5.117-19.931
	c0.055-2.979-2.168-5.856-3.852-8.094c-2.477-3.292-5.699-6.732-6.512-10.897c-0.638-3.268-5.631-1.884-4.994,1.377
	c0.765,3.915,3.323,7.257,5.683,10.359c1.113,1.462,2.261,2.906,3.254,4.454c0.376,0.585,0.778,1.195,1.037,1.844l0.189,0.979
	l-0.736,0.691c-0.983,0.913-1.99,1.801-3.018,2.662c-2.047,1.715-4.194,3.302-6.418,4.78c-4.628,3.075-9.582,5.653-14.775,7.631
	C1167.091,581.52,1168.187,586.055,1170.993,585.462z"/>

<path style="fill:#3B6BA9;" d="M1118.57,1988.931c4.953-7.668,9.905-15.335,14.857-23.002c2.729-4.225,5.458-8.45,8.187-12.675
	c0.298-0.462,0.648-0.925,0.911-1.41l1.658-0.878c4.04-2.139,8.081-4.278,12.121-6.417c-0.34,5.369-0.652,10.739-1.003,16.107
	c-0.218,3.327,4.962,3.314,5.179,0c0.412-6.304,0.741-12.612,1.132-18.917c3.98-2.107,7.96-4.214,11.94-6.321
	c4.124-2.183,8.248-4.367,12.372-6.55c1.753-0.928,3.086-1.459,3.336-3.682c0.534-4.74,0.525-9.607,0.785-14.367
	c0.537-9.816,1.074-19.633,1.61-29.45c1.365-24.965,2.729-49.931,4.094-74.896c0.835-15.279,2.322-30.68,2.514-45.985l0.04-0.728
	c0.182-3.331-4.997-3.32-5.179,0c-1.02,18.66-2.04,37.322-3.06,55.983c-1.626,29.756-3.253,59.513-4.879,89.27
	c-0.345,6.313-0.69,12.626-1.035,18.939c-7.392,3.914-14.783,7.827-22.176,11.74c2.479-40.664,4.666-81.343,7.063-122.012
	c0.948-16.086,1.953-32.168,3.004-48.248c0.217-3.327-4.962-3.314-5.179,0c-3.202,48.973-5.669,97.984-8.556,146.976
	c-0.513,8.697-1.08,17.39-1.624,26.086c-3.156,1.671-6.313,3.342-9.469,5.013c-3.201,1.695-7.401,3-9.426,6.135
	c-4.112,6.366-8.224,12.732-12.336,19.098c-3.785,5.859-7.569,11.718-11.354,17.578
	C1112.284,1989.125,1116.766,1991.723,1118.57,1988.931z M1142.353,1951.934c-0.134,0.155-0.258,0.256-0.319,0.169
	L1142.353,1951.934z"/>
<path style="fill:#dbac98;" d="M1373.552,1941.046c1.431,3.008,5.897,0.383,4.472-2.614
	c-20.089-42.232-21.474-88.985-26.454-134.632c-1.426-13.074-3.204-26.111-5.708-39.025c-0.634-3.269-5.626-1.885-4.993,1.377
	c8.841,45.601,7.338,92.82,19.196,137.885C1363.413,1916.768,1367.896,1929.157,1373.552,1941.046z">
  <animate attributeName="d" values="M1373.552,1941.046c1.431,3.008,5.897,0.383,4.472-2.614
	c-20.089-42.232-21.474-88.985-26.454-134.632c-1.426-13.074-3.204-26.111-5.708-39.025c-0.634-3.269-5.626-1.885-4.993,1.377
	c8.841,45.601,7.338,92.82,19.196,137.885C1363.413,1916.768,1367.896,1929.157,1373.552,1941.046z;
	M1373.552,1941.046c1.431,3.008,5.897,0.383,4.472-2.614
	c-20.089-42.232-21.474-88.985-26.454-134.632c-1.426-13.074-3.204-26.111-5.708-39.025c-0.634-3.269-5.626-1.885-4.993,1.377
	c8.841,45.601,7.338,92.82,19.196,137.885C1363.413,1916.768,1367.896,1929.157,1373.552,1941.046z" 
    dur="5s" repeatCount="indefinite" />
</path>

<path style="fill:#dbac98;" d="M775.2,1750.681c-13.592,56.725-25.106,113.669-30.397,171.832c-1.81,19.89-3.033,39.828-3.86,59.782
	c-0.138,3.333,5.041,3.326,5.179,0c1.38-33.286,3.898-66.536,8.295-99.567c3.725-27.973,8.86-55.731,14.855-83.302
	c3.443-15.834,7.145-31.61,10.922-47.368C780.97,1748.819,775.978,1747.437,775.2,1750.681z">
  <animate attributeName="d" values="M775.2,1750.681c-13.592,56.725-25.106,113.669-30.397,171.832c-1.81,19.89-3.033,39.828-3.86,59.782
	c-0.138,3.333,5.041,3.326,5.179,0c1.38-33.286,3.898-66.536,8.295-99.567c3.725-27.973,8.86-55.731,14.855-83.302
	c3.443-15.834,7.145-31.61,10.922-47.368C780.97,1748.819,775.978,1747.437,775.2,1750.681z;
	M775.2,1750.681c-13.592,56.725-25.106,113.669-30.397,171.832c-1.81,19.89-3.033,39.828-3.86,59.782
	c-0.138,3.333,5.041,3.326,5.179,0c1.38-33.286,3.898-66.536,8.295-99.567c3.725-27.973,8.86-55.731,14.855-83.302
	c3.443-15.834,7.145-31.61,10.922-47.368C780.97,1748.819,775.978,1747.437,775.2,1750.681z" 
    dur="5s" repeatCount="indefinite" />
</path>
<defs>
        <!-- Define a wavy animation for the T-shirt -->
        <style>
            @keyframes wave {
                0% { transform: translateY(0); }
                25% { transform: translateY(-2px); }
                50% { transform: translateY(2px); }
                75% { transform: translateY(-1px); }
                100% { transform: translateY(0); }
            }
            .wavy {
                animation: wave 1s infinite;
                transform-origin: center;
            }
        </style>
    </defs>
    
    <!-- T-shirt Path with Wavy Class -->
    <g class="wavy">
        <path style="fill:#9cef00;" d="M1308.914,900.167l-157.388-62.82c0,0,16.887,40.529-54.039,52.013
            c-81.353,13.171-193.189-52.688-193.189-52.688l-62.034,24.467c-1.769,92.401-7.844,358.61-20.269,432.591
            c-3.322,19.779-10.519,36.548-20.033,50.58c-7.776,21.741-19.93,41.894-35.879,58.659c-2.302,2.421-5.958-1.247-3.661-3.662
            c11.341-11.921,20.677-25.565,27.813-40.263c-35.037,38.047-87.494,49.552-107.938,42.847
            c-29.329-9.619-63.733-82.937-50.598-180.67c13.384-99.583,52.392-219.992,86.002-310.953l-18.915,7.461
            c-1.36-0.014-2.662,0.193-3.888,0.677c-1.913,0.757-3.814,1.853-5.708,3.107l-2.398,0.946c0,0,0.041,0.257,0.102,0.631
            c-38.314,29.39-72.076,155.485-87.239,244.57c-9.637,56.62-4.657,159.559,40.529,220.884
            c45.147,61.272,92.835,40.435,118.615,20.174c4.352,35.981,7.025,63.573,7.025,77.096c0,72.94-50.852,218.806-15.634,247.719
            c0.332,0.273,0.618,0.608,0.966,0.86c39.159,28.356,568.71,27.021,616.445,0.714c0.023-0.012,0.058-0.026,0.081-0.038
            c9.031-5.031-3.815-113.658-4.053-176.302c-0.166-43.709-0.226-95.624-0.408-147.62c-19.625-6.774-38.821-18.716-55.201-37.918
            c-51.494-60.363-143.533-251.189-166.686-299.98c-25.926,2.978-63.933,0.422-86.647-32.976c-1.424-2.095-2.589-4.307-3.595-6.587
            l-27.909-9.903c0,0-27.357-1.013-29.383-9.119c-2.027-8.106,14.418-12.145,29.383-14.185c7.919-1.08,18.622,1.415,24.172,2.953
            c0.035-0.335,0.059-0.669,0.097-1.004l-17.177-10.055c0,0-52.345,6.959-60.287-4.053c-7.943-11.011,35.071-21.561,35.071-21.561
            s-43.474,1.771-49.079-10.595c-5.605-12.366,50.727-21.589,50.727-21.589s-36.991-20.722-29.18-31.494
            c7.811-10.772,99.604,25.035,99.604,25.035s84.241,44.46,109.181,66.283c1.447,1.266,2.777,2.526,4.009,3.778
            c7.872,6.008,67.17,51.62,141.999,118.687c-0.285-2.363-0.577-4.725-0.861-7.087c-5.628-46.811-11.481-93.681-15.004-140.708
            c-0.249-3.33,4.932-3.303,5.179,0c1.802,24.054,4.349,48.053,7.007,72.025c2.995,27.012,6.198,54,9.465,80.98
            c30.395,27.402,63.117,58.154,95.87,91.14c69.481,69.976,69.683,157.655,49.47,180.982c-10.613,12.249-42.127,24.972-78.231,24.266
            c92.157,16.158,118.757-40.807,120.53-74.498C1527.771,1305.459,1412.263,920.432,1308.914,900.167z"/>
    </g>

    <!-- Text "Naman" at the center of the T-shirt -->
    <text x="50%" y="50%" font-family="Arial" font-weight="bold" font-size="100" text-anchor="middle" fill="red" dy="1em">
        Naman
    </text>
<path style="fill:#A23F56;" d="M1328.642,1041.092c-2.658-23.972-5.204-47.971-7.007-72.025c-0.247-3.303-5.428-3.33-5.179,0
	c3.523,47.027,9.376,93.898,15.004,140.708c0.284,2.363,0.575,4.725,0.861,7.087c1.914,1.716,3.852,3.465,5.786,5.209
	C1334.841,1095.091,1331.637,1068.104,1328.642,1041.092z"/>
<path style="fill:#464963;" d="M991.119,729.722l-17.148-221.851c-0.195-2.519-8.497-2.788-14.715-2.429
	c-2.472,0.143-4.58,0.384-5.752,0.623c2.611,0.135,4.694,2.161,4.927,5.172l7.474,96.692l9.674,125.16
	c0.267,3.448-2.08,5.943-5.257,5.923l0.957,0.153C974.732,739.502,991.4,733.365,991.119,729.722z"/>
<path style="fill:#6A6B8D;" d="M909.702,573.908c12.159,5.404-9.457,41.88-9.457,41.88s53.363-20.265,54.714-6.755
	c1.351,13.51-37.152,33.774-37.152,33.774s43.231-6.755,41.88,6.755c-1.351,13.509-37.152,24.993-37.152,24.993l-16.212,18.238
	c0,0,22.966-12.834,37.827-10.133c14.861,2.703,33.099,22.967,26.344,29.722c-6.755,6.755-33.099-6.755-33.099-6.755l-25.66,25.166
	c-0.01,0.168,0.003,0.334-0.009,0.502c-0.051,0.706-0.147,1.385-0.211,2.083l29.915,2.922l28.379,2.771
	c0.184,0.018,0.332-0.061,0.511-0.06c3.177,0.02,5.524-2.475,5.257-5.923l-9.674-125.16l-7.474-96.692
	c-0.233-3.011-2.316-5.038-4.927-5.172c-0.547-0.028-1.11-0.003-1.692,0.147l-12.911,3.319l-12.908,3.318l-5.384,1.385
	l-34.451,8.857l-24.086,6.192c-2.475,0.636-4.271,3.65-4.032,6.737l5.915,76.53C881.914,592.387,903.092,570.97,909.702,573.908z"/>
<path style="fill:#F7B8B2;" d="M1433.977,1213.212c-32.752-32.986-65.474-63.738-95.87-91.14c-1.934-1.744-3.872-3.493-5.786-5.209
	c-74.828-67.067-134.127-112.678-141.999-118.687c-1.232-1.253-2.562-2.512-4.009-3.778
	c-24.94-21.823-109.181-66.283-109.181-66.283s-91.794-35.807-99.604-25.035c-7.811,10.772,29.18,31.494,29.18,31.494
	s-56.332,9.222-50.727,21.589c5.605,12.366,49.079,10.595,49.079,10.595s-43.014,10.55-35.071,21.561
	c7.942,11.012,60.287,4.053,60.287,4.053l17.177,10.055c-0.038,0.335-0.062,0.669-0.097,1.004
	c-5.551-1.539-16.254-4.034-24.172-2.953c-14.965,2.04-31.41,6.079-29.383,14.185c2.026,8.106,29.383,9.119,29.383,9.119
	l27.909,9.903c1.006,2.279,2.171,4.492,3.595,6.587c22.714,33.398,60.721,35.954,86.647,32.976
	c23.152,48.791,115.191,239.617,166.686,299.98c16.38,19.202,35.576,31.145,55.201,37.918c14.072,4.857,28.356,7.047,41.994,7.314
	c36.104,0.706,67.618-12.017,78.231-24.266C1503.66,1370.867,1503.458,1283.188,1433.977,1213.212z"/>
<path style="fill:#DF8080;" d="M852.249,644.38c14.858-8.11,29.716-16.221,44.575-24.332c2.926-1.597,0.316-6.07-2.614-4.472
	c-14.858,8.111-29.716,16.222-44.575,24.332C846.709,641.506,849.32,645.979,852.249,644.38z"/>
<path style="fill:#DF8080;" d="M869.741,662.643c-2.725,1.881-0.138,6.371,2.614,4.472c13.404-9.25,28.021-16.559,43.492-21.653
	c3.151-1.038,1.802-6.04-1.377-4.994C898.586,645.698,883.504,653.144,869.741,662.643z"/>
<path style="fill:#DF8080;" d="M901.792,692.989c-4.256,4.08-7.449,9.115-9.448,14.652c-0.46,1.276,0.518,2.891,1.809,3.185
	c1.457,0.332,2.693-0.442,3.185-1.809l0.356-0.951l0.167-0.42l0.086-0.212l0.14-0.312l0.188-0.411l0.441-0.915
	c0.589-1.178,1.245-2.323,1.963-3.427c0.348-0.537,0.712-1.064,1.089-1.58l0.269-0.363l0.077-0.103l0.567-0.702
	c0.865-1.044,1.794-2.032,2.772-2.97c0.979-0.939,1.015-2.729,0-3.662C904.402,692.023,902.837,691.987,901.792,692.989z"/>
<path style="fill:#A23F56;" d="M762.422,1399.307c-2.297,2.415,1.359,6.083,3.661,3.662c15.949-16.765,28.103-36.918,35.879-58.659
	c-3.599,5.308-7.548,10.196-11.727,14.734C783.099,1373.742,773.763,1387.386,762.422,1399.307z"/>
<path style="fill:#DF8080;" d="M1012.999,936.13c17.461-2.212,35.226,0.378,52.741,0.401c3.333,0.005,3.338-5.175,0-5.179
	c-17.515-0.023-35.28-2.613-52.741-0.402C1009.737,931.364,1009.696,936.548,1012.999,936.13z"/>
<path style="fill:#DF8080;" d="M1010.328,963.825c-3.263,0.667-1.882,5.661,1.377,4.994c19.684-4.029,41.712-2.907,58.807,8.564
	c2.775,1.862,5.371-2.622,2.614-4.472C1054.876,960.665,1031.316,959.528,1010.328,963.825z"/>
<path style="fill:#DF8080;" d="M1054.414,1003.025c-1.301-0.377-2.878,0.457-3.186,1.808c-0.315,1.384,0.416,2.782,1.809,3.185
	c0.67,0.194,1.319,0.432,1.97,0.68c0.025,0.009,0.012,0.003,0.03,0.01l0.482,0.215l0.947,0.456c1.199,0.603,2.36,1.28,3.488,2.006
	c0.836,0.538,1.655,1.103,2.454,1.694l0.332,0.249l0.156,0.124c0.548,0.448,1.097,0.758,1.831,0.758
	c0.635,0,1.393-0.282,1.831-0.758c0.87-0.948,1.12-2.747,0-3.662C1062.998,1006.886,1058.846,1004.308,1054.414,1003.025z"/>
</svg>
